<svg width="40" height="40" viewBox="0 0 40 40" fill="none" xmlns="http://www.w3.org/2000/svg">
<mask id="mask0_39_159" style="mask-type:alpha" maskUnits="userSpaceOnUse" x="0" y="0" width="40" height="40">
<rect width="40" height="40" fill="#D9D9D9"/>
</mask>
<g mask="url(#mask0_39_159)">
<path d="M17.9167 31.4104C18.8975 31.4104 19.725 31.0733 20.3992 30.3992C21.0733 29.725 21.4104 28.8975 21.4104 27.9167V21.4742H26.1858V18.5258H19.9358V25.1604C19.6517 24.906 19.3414 24.7194 19.005 24.6008C18.6683 24.4822 18.3056 24.4229 17.9167 24.4229C16.9358 24.4229 16.1083 24.76 15.4342 25.4342C14.76 26.1083 14.4229 26.9358 14.4229 27.9167C14.4229 28.8975 14.76 29.725 15.4342 30.3992C16.1083 31.0733 16.9358 31.4104 17.9167 31.4104ZM10.5129 35.8333C9.67097 35.8333 8.95833 35.5417 8.375 34.9583C7.79167 34.375 7.5 33.6624 7.5 32.8204V7.17957C7.5 6.33763 7.79167 5.62499 8.375 5.04166C8.95833 4.45832 9.67097 4.16666 10.5129 4.16666H23.75L32.5 12.9167V32.8204C32.5 33.6624 32.2083 34.375 31.625 34.9583C31.0417 35.5417 30.329 35.8333 29.4871 35.8333H10.5129ZM22.5 14.1667V6.66666H10.5129C10.3846 6.66666 10.2671 6.72013 10.1604 6.82707C10.0535 6.93374 10 7.05124 10 7.17957V32.8204C10 32.9487 10.0535 33.0662 10.1604 33.1729C10.2671 33.2799 10.3846 33.3333 10.5129 33.3333H29.4871C29.6154 33.3333 29.7329 33.2799 29.8396 33.1729C29.9465 33.0662 30 32.9487 30 32.8204V14.1667H22.5Z" fill="#1E1E1E"/>
</g>
</svg>
