<svg width="26" height="32" viewBox="0 0 26 32" fill="none" xmlns="http://www.w3.org/2000/svg">
<path d="M10.9167 27.4104C11.8975 27.4104 12.725 27.0733 13.3992 26.3992C14.0733 25.725 14.4104 24.8975 14.4104 23.9167V17.4742H19.1858V14.5258H12.9358V21.1604C12.6517 20.906 12.3414 20.7194 12.005 20.6008C11.6683 20.4822 11.3056 20.4229 10.9167 20.4229C9.93583 20.4229 9.10833 20.76 8.43417 21.4342C7.76 22.1083 7.42292 22.9358 7.42292 23.9167C7.42292 24.8975 7.76 25.725 8.43417 26.3992C9.10833 27.0733 9.93583 27.4104 10.9167 27.4104ZM3.51292 31.8333C2.67097 31.8333 1.95833 31.5417 1.375 30.9583C0.791667 30.375 0.5 29.6624 0.5 28.8204V3.17957C0.5 2.33763 0.791667 1.62499 1.375 1.04166C1.95833 0.458323 2.67097 0.166656 3.51292 0.166656H16.75L25.5 8.91666V28.8204C25.5 29.6624 25.2083 30.375 24.625 30.9583C24.0417 31.5417 23.329 31.8333 22.4871 31.8333H3.51292ZM15.5 10.1667V2.66666H3.51292C3.38458 2.66666 3.26708 2.72013 3.16042 2.82707C3.05347 2.93374 3 3.05124 3 3.17957V28.8204C3 28.9487 3.05347 29.0662 3.16042 29.1729C3.26708 29.2799 3.38458 29.3333 3.51292 29.3333H22.4871C22.6154 29.3333 22.7329 29.2799 22.8396 29.1729C22.9465 29.0662 23 28.9487 23 28.8204V10.1667H15.5Z" fill="#1E1E1E"/>
</svg>
