<svg width="40" height="40" viewBox="0 0 40 40" fill="none" xmlns="http://www.w3.org/2000/svg">
<mask id="mask0_102_206" style="mask-type:alpha" maskUnits="userSpaceOnUse" x="0" y="0" width="40" height="40">
<rect width="40" height="40" fill="#D9D9D9"/>
</mask>
<g mask="url(#mask0_102_206)">
<path d="M13.9125 35.8333C13.4814 35.8333 13.1221 35.6889 12.8346 35.4C12.5471 35.1114 12.4033 34.7536 12.4033 34.3267V8.57375C12.4033 8.1468 12.5478 7.78903 12.8367 7.50041C13.1253 7.2118 13.483 7.0675 13.91 7.0675H16.9225V4.16666H23.0767V7.0675H26.0925C26.5197 7.0675 26.8771 7.2118 27.1646 7.50041C27.4521 7.78903 27.5958 8.1468 27.5958 8.57375V34.3267C27.5958 34.7536 27.4514 35.1114 27.1625 35.4C26.8739 35.6889 26.5161 35.8333 26.0892 35.8333H13.9125ZM14.9033 33.3333H25.0958V9.55125H14.9033V33.3333Z" fill="#1E1E1E"/>
</g>
</svg>
