<svg width="25" height="25" viewBox="0 0 25 25" fill="none" xmlns="http://www.w3.org/2000/svg">
<circle cx="12.759" cy="12.2414" r="12.2414" fill="white"/>
<mask id="mask0_754_87" style="mask-type:alpha" maskUnits="userSpaceOnUse" x="2" y="2" width="21" height="21">
<rect x="2.96582" y="2.44824" width="19.5862" height="19.5862" fill="#D9D9D9"/>
</mask>
<g mask="url(#mask0_754_87)">
<path d="M9.82065 17.2414L12.7586 14.3034L15.6965 17.2414L16.839 16.0989L13.9011 13.1609L16.839 10.223L15.6965 9.08046L12.7586 12.0184L9.82065 9.08046L8.67812 10.223L11.616 13.1609L8.67812 16.0989L9.82065 17.2414ZM12.7586 21.3218C11.6296 21.3218 10.5687 21.1076 9.57582 20.6792C8.58291 20.2507 7.71921 19.6693 6.98473 18.9348C6.25024 18.2003 5.66878 17.3366 5.24033 16.3437C4.81188 15.3508 4.59766 14.2898 4.59766 13.1609C4.59766 12.032 4.81188 10.9711 5.24033 9.97816C5.66878 8.98525 6.25024 8.12155 6.98473 7.38707C7.71921 6.65259 8.58291 6.07112 9.57582 5.64267C10.5687 5.21422 11.6296 5 12.7586 5C13.8875 5 14.9484 5.21422 15.9413 5.64267C16.9342 6.07112 17.7979 6.65259 18.5324 7.38707C19.2669 8.12155 19.8484 8.98525 20.2768 9.97816C20.7053 10.9711 20.9195 12.032 20.9195 13.1609C20.9195 14.2898 20.7053 15.3508 20.2768 16.3437C19.8484 17.3366 19.2669 18.2003 18.5324 18.9348C17.7979 19.6693 16.9342 20.2507 15.9413 20.6792C14.9484 21.1076 13.8875 21.3218 12.7586 21.3218Z" fill="#C92E26"/>
</g>
</svg>
