<svg width="24" height="25" viewBox="0 0 24 25" fill="none" xmlns="http://www.w3.org/2000/svg">
<mask id="mask0_518_1467" style="mask-type:alpha" maskUnits="userSpaceOnUse" x="0" y="0" width="24" height="25">
<rect y="0.5" width="24" height="24" fill="#D9D9D9"/>
</mask>
<g mask="url(#mask0_518_1467)">
<path d="M12 22.5C10.6167 22.5 9.31667 22.2375 8.1 21.7125C6.88333 21.1875 5.825 20.475 4.925 19.575C4.025 18.675 3.3125 17.6167 2.7875 16.4C2.2625 15.1833 2 13.8833 2 12.5C2 11.1167 2.2625 9.81667 2.7875 8.6C3.3125 7.38333 4.025 6.325 4.925 5.425C5.825 4.525 6.88333 3.8125 8.1 3.2875C9.31667 2.7625 10.6167 2.5 12 2.5C13.3833 2.5 14.6833 2.7625 15.9 3.2875C17.1167 3.8125 18.175 4.525 19.075 5.425C19.975 6.325 20.6875 7.38333 21.2125 8.6C21.7375 9.81667 22 11.1167 22 12.5C22 13.8833 21.7375 15.1833 21.2125 16.4C20.6875 17.6167 19.975 18.675 19.075 19.575C18.175 20.475 17.1167 21.1875 15.9 21.7125C14.6833 22.2375 13.3833 22.5 12 22.5ZM11 20.45V18.5C10.45 18.5 9.97917 18.3042 9.5875 17.9125C9.19583 17.5208 9 17.05 9 16.5V15.5L4.2 10.7C4.15 11 4.10417 11.3 4.0625 11.6C4.02083 11.9 4 12.2 4 12.5C4 14.5167 4.6625 16.2833 5.9875 17.8C7.3125 19.3167 8.98333 20.2 11 20.45ZM17.9 17.9C18.5833 17.15 19.1042 16.3125 19.4625 15.3875C19.8208 14.4625 20 13.5 20 12.5C20 10.8667 19.5458 9.375 18.6375 8.025C17.7292 6.675 16.5167 5.7 15 5.1V5.5C15 6.05 14.8042 6.52083 14.4125 6.9125C14.0208 7.30417 13.55 7.5 13 7.5H11V9.5C11 9.78333 10.9042 10.0208 10.7125 10.2125C10.5208 10.4042 10.2833 10.5 10 10.5H8V12.5H14C14.2833 12.5 14.5208 12.5958 14.7125 12.7875C14.9042 12.9792 15 13.2167 15 13.5V16.5H16C16.4333 16.5 16.825 16.6292 17.175 16.8875C17.525 17.1458 17.7667 17.4833 17.9 17.9Z" fill="white"/>
</g>
</svg>
