<svg width="30" height="40" viewBox="0 0 30 40" fill="none" xmlns="http://www.w3.org/2000/svg">
<path d="M14.5833 25C12.8472 25 11.3715 24.3924 10.1562 23.1771C8.94097 21.9618 8.33333 20.4861 8.33333 18.75V6.25C8.33333 4.51389 8.94097 3.03819 10.1562 1.82292C11.3715 0.607639 12.8472 0 14.5833 0C16.3194 0 17.7951 0.607639 19.0104 1.82292C20.2257 3.03819 20.8333 4.51389 20.8333 6.25V18.75C20.8333 20.4861 20.2257 21.9618 19.0104 23.1771C17.7951 24.3924 16.3194 25 14.5833 25ZM12.5 39.5833V33.1771C8.88889 32.691 5.90278 31.0764 3.54167 28.3333C1.18056 25.5903 0 22.3958 0 18.75H4.16667C4.16667 21.6319 5.18229 24.0885 7.21354 26.1198C9.24479 28.151 11.7014 29.1667 14.5833 29.1667C17.4653 29.1667 19.9219 28.151 21.9531 26.1198C23.9844 24.0885 25 21.6319 25 18.75H29.1667C29.1667 22.3958 27.9861 25.5903 25.625 28.3333C23.2639 31.0764 20.2778 32.691 16.6667 33.1771V39.5833H12.5Z" fill="white"/>
</svg>
