<svg width="24" height="32" viewBox="0 0 24 32" fill="none" xmlns="http://www.w3.org/2000/svg">
<path d="M12.1616 19.8524C10.783 19.8524 9.61114 19.3699 8.64609 18.4048C7.68104 17.4398 7.19852 16.2679 7.19852 14.8893V4.9631C7.19852 3.58446 7.68104 2.41262 8.64609 1.44757C9.61114 0.482523 10.783 0 12.1616 0C13.5403 0 14.7121 0.482523 15.6771 1.44757C16.6422 2.41262 17.1247 3.58446 17.1247 4.9631V14.8893C17.1247 16.2679 16.6422 17.4398 15.6771 18.4048C14.7121 19.3699 13.5403 19.8524 12.1616 19.8524ZM10.5073 31.433V26.3458C7.63968 25.9598 5.26843 24.6776 3.39348 22.4994C1.51853 20.3211 0.581055 17.7844 0.581055 14.8893H3.88979C3.88979 17.1778 4.69629 19.1286 6.3093 20.7416C7.92231 22.3546 9.87308 23.1611 12.1616 23.1611C14.4502 23.1611 16.4009 22.3546 18.0139 20.7416C19.6269 19.1286 20.4335 17.1778 20.4335 14.8893H23.7422C23.7422 17.7844 22.8047 20.3211 20.9298 22.4994C19.0548 24.6776 16.6836 25.9598 13.816 26.3458V31.433H10.5073Z" fill="#C92E26"/>
</svg>
