<svg width="51" height="51" viewBox="0 0 51 51" fill="none" xmlns="http://www.w3.org/2000/svg">
<mask id="mask0_379_3695" style="mask-type:alpha" maskUnits="userSpaceOnUse" x="0" y="0" width="51" height="51">
<rect x="0.509766" y="0.718506" width="50.1465" height="50.1465" fill="#D9D9D9"/>
</mask>
<g mask="url(#mask0_379_3695)">
<path d="M21.4044 29.9707C19.6632 29.9707 18.1832 29.3613 16.9643 28.1424C15.7455 26.9236 15.1361 25.4436 15.1361 23.7024V11.1658C15.1361 9.42457 15.7455 7.94456 16.9643 6.72572C18.1832 5.50688 19.6632 4.89746 21.4044 4.89746C23.1456 4.89746 24.6256 5.50688 25.8444 6.72572C27.0633 7.94456 27.6727 9.42457 27.6727 11.1658V23.7024C27.6727 25.4436 27.0633 26.9236 25.8444 28.1424C24.6256 29.3613 23.1456 29.9707 21.4044 29.9707ZM23.4938 44.5968H19.3149V38.1717C15.6933 37.6842 12.6984 36.0649 10.3304 33.3138C7.96233 30.5627 6.77832 27.3589 6.77832 23.7024H10.9572C10.9572 26.5928 11.9758 29.0566 14.013 31.0938C16.0502 33.131 18.514 34.1496 21.4044 34.1496C21.7874 34.1496 22.1444 34.1322 22.4752 34.0973C22.806 34.0625 23.1456 34.0103 23.4938 33.9406V44.5968ZM36.0304 42.5073C36.309 42.5073 36.5528 42.4029 36.7617 42.1939C36.9707 41.985 37.0752 41.7412 37.0752 41.4626C37.0752 41.184 36.9707 40.9402 36.7617 40.7313C36.5528 40.5224 36.309 40.4179 36.0304 40.4179C35.7518 40.4179 35.5081 40.5224 35.2991 40.7313C35.0902 40.9402 34.9857 41.184 34.9857 41.4626C34.9857 41.7412 35.0902 41.985 35.2991 42.1939C35.5081 42.4029 35.7518 42.5073 36.0304 42.5073ZM34.9857 38.3284H37.0752V29.9707H34.9857V38.3284ZM36.0304 46.6862C33.14 46.6862 30.6763 45.6676 28.6391 43.6304C26.6019 41.5932 25.5833 39.1294 25.5833 36.239C25.5833 33.3486 26.6019 30.8848 28.6391 28.8476C30.6763 26.8104 33.14 25.7918 36.0304 25.7918C38.9208 25.7918 41.3846 26.8104 43.4218 28.8476C45.459 30.8848 46.4776 33.3486 46.4776 36.239C46.4776 39.1294 45.459 41.5932 43.4218 43.6304C41.3846 45.6676 38.9208 46.6862 36.0304 46.6862Z" fill="white"/>
</g>
</svg>
