<svg width="40" height="40" viewBox="0 0 40 40" fill="none" xmlns="http://www.w3.org/2000/svg">
<mask id="mask0_102_215" style="mask-type:alpha" maskUnits="userSpaceOnUse" x="0" y="0" width="40" height="40">
<rect width="40" height="40" fill="#D9D9D9"/>
</mask>
<g mask="url(#mask0_102_215)">
<path d="M20 37.3075L8.705 28.8367C8.33111 28.5631 8.03681 28.2115 7.82208 27.7821C7.60736 27.3526 7.5 26.9007 7.5 26.4262V7.17958C7.5 6.33764 7.79167 5.625 8.375 5.04166C8.95833 4.45833 9.67097 4.16666 10.5129 4.16666H29.4871C30.329 4.16666 31.0417 4.45833 31.625 5.04166C32.2083 5.625 32.5 6.33764 32.5 7.17958V26.4262C32.5 26.9007 32.3926 27.3526 32.1779 27.7821C31.9632 28.2115 31.6689 28.5631 31.295 28.8367L20 37.3075ZM20 34.1667L29.7917 26.8271C29.8558 26.7735 29.9065 26.7119 29.9438 26.6425C29.9813 26.5731 30 26.4957 30 26.4104V7.17958C30 7.05125 29.9465 6.93375 29.8396 6.82708C29.7329 6.72014 29.6154 6.66666 29.4871 6.66666H10.5129C10.3846 6.66666 10.2671 6.72014 10.1604 6.82708C10.0535 6.93375 10 7.05125 10 7.17958V26.4104C10 26.4957 10.0188 26.5731 10.0563 26.6425C10.0935 26.7119 10.1442 26.7735 10.2083 26.8271L20 34.1667ZM18.25 24.4229L27.0896 15.5833L25.3333 13.7758L18.25 20.8592L14.7179 17.3271L12.9104 19.0833L18.25 24.4229Z" fill="#1E1E1E"/>
</g>
</svg>
