<svg width="40" height="40" viewBox="0 0 40 40" fill="none" xmlns="http://www.w3.org/2000/svg">
<mask id="mask0_102_188" style="mask-type:alpha" maskUnits="userSpaceOnUse" x="0" y="0" width="40" height="40">
<rect width="40" height="40" fill="#D9D9D9"/>
</mask>
<g mask="url(#mask0_102_188)">
<path d="M9.7399 32.5963C8.43879 32.5963 7.33421 32.1413 6.42615 31.2313C5.5181 30.3213 5.06407 29.2164 5.06407 27.9167H2.24365V10.5129C2.24365 9.67097 2.53532 8.95833 3.11865 8.375C3.70199 7.79167 4.41449 7.5 5.25615 7.5H27.9487V13.8463H32.3716L37.7562 21.0579V27.9167H34.7437C34.7437 29.2164 34.2882 30.3213 33.3774 31.2313C32.4668 32.1413 31.3612 32.5963 30.0603 32.5963C28.7595 32.5963 27.6549 32.1413 26.7466 31.2313C25.8385 30.3213 25.3845 29.2164 25.3845 27.9167H14.4228C14.4228 29.22 13.9675 30.3257 13.057 31.2338C12.1464 32.1421 11.0407 32.5963 9.7399 32.5963ZM9.74365 30.0963C10.3548 30.0963 10.8707 29.8857 11.2916 29.4646C11.7124 29.0438 11.9228 28.5278 11.9228 27.9167C11.9228 27.3056 11.7124 26.7894 11.2916 26.3683C10.8707 25.9475 10.3548 25.7371 9.74365 25.7371C9.13254 25.7371 8.61643 25.9475 8.19532 26.3683C7.77449 26.7894 7.56407 27.3056 7.56407 27.9167C7.56407 28.5278 7.77449 29.0438 8.19532 29.4646C8.61643 29.8857 9.13254 30.0963 9.74365 30.0963ZM4.74365 25.4167H5.94865C6.30337 24.7992 6.8156 24.2815 7.48532 23.8638C8.15532 23.446 8.9081 23.2371 9.74365 23.2371C10.5575 23.2371 11.3048 23.4433 11.9853 23.8558C12.6659 24.2683 13.1835 24.7886 13.5382 25.4167H25.4487V10H5.25615C5.1281 10 5.0106 10.0535 4.90365 10.1604C4.79699 10.2671 4.74365 10.3846 4.74365 10.5129V25.4167ZM30.0641 30.0963C30.6752 30.0963 31.1912 29.8857 31.612 29.4646C32.0331 29.0438 32.2437 28.5278 32.2437 27.9167C32.2437 27.3056 32.0331 26.7894 31.612 26.3683C31.1912 25.9475 30.6752 25.7371 30.0641 25.7371C29.453 25.7371 28.9368 25.9475 28.5157 26.3683C28.0949 26.7894 27.8845 27.3056 27.8845 27.9167C27.8845 28.5278 28.0949 29.0438 28.5157 29.4646C28.9368 29.8857 29.453 30.0963 30.0641 30.0963ZM27.9487 22.0833H35.4166L31.0895 16.3463H27.9487V22.0833Z" fill="#1C1B1F"/>
</g>
</svg>
