<svg width="28" height="28" viewBox="0 0 28 28" fill="none" xmlns="http://www.w3.org/2000/svg">
<mask id="mask0_754_82" style="mask-type:alpha" maskUnits="userSpaceOnUse" x="0" y="0" width="28" height="28">
<rect width="28" height="28" fill="#D9D9D9"/>
</mask>
<g mask="url(#mask0_754_82)">
<path d="M7.00033 25.6666C6.35866 25.6666 5.80935 25.4381 5.35241 24.9812C4.89546 24.5242 4.66699 23.9749 4.66699 23.3333V4.66659C4.66699 4.02492 4.89546 3.47561 5.35241 3.01867C5.80935 2.56172 6.35866 2.33325 7.00033 2.33325H16.3337L23.3337 9.33325V23.3333C23.3337 23.9749 23.1052 24.5242 22.6482 24.9812C22.1913 25.4381 21.642 25.6666 21.0003 25.6666H7.00033ZM15.167 10.4999V4.66659H7.00033V23.3333H21.0003V10.4999H15.167Z" fill="#1E1E1E"/>
</g>
<mask id="mask1_754_82" style="mask-type:alpha" maskUnits="userSpaceOnUse" x="7" y="10" width="13" height="14">
<rect x="7" y="10.5" width="12.8333" height="12.8333" fill="#D9D9D9"/>
</mask>
<g mask="url(#mask1_754_82)">
<path d="M12.3469 21.7292C11.7587 21.7292 11.2552 21.5198 10.8363 21.1009C10.4174 20.6821 10.208 20.1786 10.208 19.5904C10.208 19.0022 10.4174 18.4986 10.8363 18.0798C11.2552 17.6609 11.7587 17.4515 12.3469 17.4515C12.5519 17.4515 12.7413 17.476 12.915 17.525C13.0888 17.574 13.2559 17.6475 13.4163 17.7456V12.1042H16.6247V14.2431H14.4858V19.5904C14.4858 20.1786 14.2764 20.6821 13.8575 21.1009C13.4386 21.5198 12.9351 21.7292 12.3469 21.7292Z" fill="#1E1E1E"/>
</g>
</svg>
