<svg width="19" height="19" viewBox="0 0 19 19" fill="none" xmlns="http://www.w3.org/2000/svg">
<path d="M11 19C9.9 19 8.95833 18.6083 8.175 17.825C7.39167 17.0417 7 16.1 7 15C7 13.9 7.39167 12.9583 8.175 12.175C8.95833 11.3917 9.9 11 11 11C11.3833 11 11.7375 11.0458 12.0625 11.1375C12.3875 11.2292 12.7 11.3667 13 11.55V1H19V5H15V15C15 16.1 14.6083 17.0417 13.825 17.825C13.0417 18.6083 12.1 19 11 19Z" fill="white"/>
<path d="M3.42857 4.57143H0V3.42857H3.42857V0H4.57143V3.42857H8V4.57143H4.57143V8H3.42857V4.57143Z" fill="white"/>
</svg>
