<svg width="28" height="34" viewBox="0 0 28 34" fill="none" xmlns="http://www.w3.org/2000/svg">
<path d="M12.5083 28.1242H15.817V21.2172L18.464 23.8642L20.7801 21.5068L14.1627 14.8893L7.5452 21.5068L9.90267 23.8229L12.5083 21.2172V28.1242ZM4.23647 33.0873C3.32657 33.0873 2.54763 32.7633 1.89967 32.1154C1.25171 31.4674 0.927734 30.6885 0.927734 29.7786V3.30873C0.927734 2.39883 1.25171 1.6199 1.89967 0.97194C2.54763 0.32398 3.32657 0 4.23647 0H17.4714L27.3976 9.9262V29.7786C27.3976 30.6885 27.0736 31.4674 26.4257 32.1154C25.7777 32.7633 24.9988 33.0873 24.0889 33.0873H4.23647ZM15.817 11.5806H24.0889L15.817 3.30873V11.5806Z" fill="#C92E26"/>
</svg>
